<svg width="38" height="24" viewBox="0 0 38 24" fill="none" xmlns="http://www.w3.org/2000/svg">
<g clip-path="url(#clip0_12417_14731)">
<path d="M34.597 0H3.40308C3.27316 0 3.14301 0 3.01332 0.000747416C2.9037 0.00151748 2.79433 0.00271788 2.68496 0.00566224C2.44642 0.0120266 2.20585 0.0259104 1.9703 0.0676751C1.73099 0.110165 1.5083 0.17947 1.29105 0.288593C1.07747 0.395745 0.881941 0.535897 0.712492 0.703137C0.542969 0.870377 0.400907 1.06296 0.292316 1.27389C0.181683 1.48822 0.111386 1.70798 0.0686154 1.94426C0.0260539 2.1767 0.0118866 2.41399 0.00545845 2.64907C0.00251985 2.75697 0.00125947 2.86487 0.000545477 2.97274C-0.00021213 3.10096 4.04057e-05 3.22909 4.04057e-05 3.35753V20.6427C4.04057e-05 20.7712 -0.00021213 20.8991 0.000545477 21.0275C0.00125947 21.1354 0.00251985 21.2433 0.00545845 21.3512C0.0118866 21.5861 0.0260539 21.8234 0.0686154 22.0557C0.111386 22.2921 0.181683 22.5118 0.292316 22.7261C0.400907 22.9371 0.542969 23.1299 0.712492 23.2969C0.881941 23.4644 1.07747 23.6045 1.29105 23.7114C1.5083 23.8208 1.73099 23.8902 1.9703 23.9326C2.20585 23.9741 2.44642 23.9882 2.68496 23.9946C2.79433 23.9971 2.9037 23.9985 3.01332 23.999C3.14301 24 3.27316 24 3.40308 24H34.597C34.7267 24 34.8568 24 34.9865 23.999C35.0958 23.9985 35.2052 23.9971 35.3151 23.9946C35.5531 23.9882 35.7936 23.9741 36.0298 23.9326C36.2688 23.8902 36.4915 23.8208 36.7088 23.7114C36.9226 23.6045 37.1175 23.4644 37.2873 23.2969C37.4566 23.1299 37.5986 22.9371 37.7075 22.7261C37.8184 22.5118 37.8886 22.2921 37.9312 22.0557C37.9738 21.8234 37.9876 21.5861 37.994 21.3512C37.997 21.2433 37.9985 21.1354 37.999 21.0275C38 20.8991 38 20.7712 38 20.6427V3.35753C38 3.22909 38 3.10096 37.999 2.97274C37.9985 2.86487 37.997 2.75697 37.994 2.64907C37.9876 2.41399 37.9738 2.1767 37.9312 1.94426C37.8886 1.70798 37.8184 1.48822 37.7075 1.27389C37.5986 1.06296 37.4566 0.870377 37.2873 0.703137C37.1175 0.535897 36.9226 0.395745 36.7088 0.288593C36.4915 0.17947 36.2688 0.110165 36.0298 0.0676751C35.7936 0.0259104 35.5531 0.0120266 35.3151 0.00566224C35.2052 0.00271788 35.0958 0.00151748 34.9865 0.000747416C34.8568 0 34.7267 0 34.597 0Z" fill="#111928"/>
<path d="M34.5971 0.799927L34.9809 0.800652C35.0848 0.801376 35.1888 0.802486 35.2933 0.805295C35.4751 0.810141 35.6878 0.819858 35.8861 0.854918C36.0584 0.88554 36.203 0.932106 36.3417 1.00177C36.4786 1.07042 36.6041 1.16038 36.7136 1.26831C36.8236 1.37695 36.9149 1.50093 36.9854 1.63753C37.0556 1.77331 37.1025 1.91523 37.1334 2.0865C37.1688 2.27997 37.1786 2.49038 37.1836 2.67087C37.1864 2.77274 37.1878 2.87462 37.1883 2.97892C37.1893 3.10505 37.1893 3.23111 37.1893 3.35749V20.6427C37.1893 20.7691 37.1893 20.8949 37.1883 21.0237C37.1878 21.1256 37.1864 21.2275 37.1836 21.3295C37.1786 21.5097 37.1688 21.72 37.133 21.9158C37.1025 22.0847 37.0557 22.2266 36.9851 22.3631C36.9148 22.4994 36.8236 22.6232 36.7141 22.7312C36.6039 22.8399 36.4789 22.9296 36.3403 22.9989C36.2026 23.0682 36.0583 23.1147 35.8877 23.145C35.6854 23.1806 35.4638 23.1904 35.2969 23.1948C35.1919 23.1971 35.0874 23.1986 34.9803 23.1991C34.8527 23.2 34.7247 23.2 34.5971 23.2H3.40322C3.40153 23.2 3.39987 23.2 3.39815 23.2C3.27202 23.2 3.14564 23.2 3.01721 23.199C2.9125 23.1986 2.80802 23.1972 2.70701 23.1949C2.53629 23.1904 2.31454 23.1806 2.11391 23.1452C1.9418 23.1147 1.79751 23.0682 1.65802 22.998C1.52076 22.9293 1.39579 22.8397 1.28557 22.7308C1.1762 22.623 1.08531 22.4996 1.01504 22.3631C0.944696 22.2268 0.897632 22.0844 0.866687 21.9135C0.830917 21.7181 0.821091 21.5087 0.81618 21.3297C0.813377 21.2272 0.812206 21.1247 0.81154 21.0228L0.811035 20.7221L0.811058 20.6427V3.35749L0.811035 3.27809L0.811517 2.97796C0.812206 2.87548 0.813377 2.77301 0.81618 2.67062C0.821091 2.49144 0.830917 2.28189 0.866983 2.08489C0.897655 1.9155 0.944695 1.77313 1.01541 1.63613C1.08513 1.50071 1.17618 1.37709 1.28613 1.26865C1.39563 1.16057 1.52101 1.07072 1.65914 1.00141C1.79714 0.932083 1.94171 0.88554 2.11382 0.854986C2.31213 0.819835 2.52497 0.810141 2.70726 0.805272C2.81117 0.802486 2.91507 0.801376 3.0182 0.800674L3.40322 0.799927H34.5971Z" fill="white"/>
<path d="M10.3741 8.07226C10.6995 7.67077 10.9203 7.13169 10.8621 6.58081C10.3858 6.60418 9.80454 6.89081 9.46805 7.29261C9.16591 7.6367 8.89849 8.19835 8.9682 8.72614C9.50286 8.77189 10.037 8.46248 10.3741 8.07226Z" fill="#111928"/>
<path d="M10.8558 8.82923C10.0794 8.7836 9.41917 9.26398 9.04838 9.26398C8.67737 9.26398 8.10956 8.85222 7.49542 8.86332C6.69608 8.8749 5.95439 9.32077 5.54876 10.0299C4.71445 11.4486 5.32859 13.5529 6.13991 14.7083C6.53391 15.2799 7.00874 15.9093 7.63441 15.8867C8.22556 15.8638 8.45726 15.5091 9.17583 15.5091C9.89387 15.5091 10.1026 15.8867 10.7284 15.8753C11.3773 15.8638 11.783 15.3034 12.177 14.7312C12.629 14.0796 12.814 13.4504 12.8256 13.4159C12.814 13.4044 11.5743 12.9352 11.5628 11.5284C11.5511 10.3504 12.5361 9.7901 12.5825 9.75535C12.0262 8.94374 11.1571 8.85222 10.8558 8.82923Z" fill="#111928"/>
<path d="M17.6168 7.23499C19.3044 7.23499 20.4796 8.38263 20.4796 10.0535C20.4796 11.7304 19.2802 12.884 17.5745 12.884H15.706V15.8155H14.356V7.23499H17.6168V7.23499ZM15.706 11.766H17.255C18.4304 11.766 19.0993 11.1417 19.0993 10.0595C19.0993 8.97732 18.4304 8.35889 17.261 8.35889H15.706V11.766Z" fill="#111928"/>
<path d="M20.8325 14.0376C20.8325 12.9434 21.6824 12.2715 23.1893 12.1882L24.9251 12.0872V11.6056C24.9251 10.9098 24.4489 10.4936 23.6534 10.4936C22.8998 10.4936 22.4297 10.8503 22.3153 11.4093H21.0857C21.158 10.2795 22.1344 9.44702 23.7016 9.44702C25.2385 9.44702 26.2209 10.2498 26.2209 11.5044V15.8155H24.9732V14.7868H24.9432C24.5756 15.4825 23.7739 15.9225 22.9422 15.9225C21.7005 15.9225 20.8325 15.1614 20.8325 14.0376ZM24.9251 13.4727V12.9792L23.3639 13.0743C22.5864 13.1278 22.1465 13.4667 22.1465 14.0019C22.1465 14.5489 22.6045 14.9057 23.3037 14.9057C24.2138 14.9057 24.9251 14.2873 24.9251 13.4727Z" fill="#111928"/>
<path d="M27.3984 18.1167V17.076C27.4946 17.0998 27.7116 17.0998 27.8201 17.0998C28.4228 17.0998 28.7484 16.8501 28.9472 16.2079C28.9472 16.196 29.0618 15.8273 29.0618 15.8214L26.7715 9.55994H28.1817L29.7852 14.65H29.8091L31.4126 9.55994H32.7867L30.4118 16.1424C29.8696 17.6588 29.2427 18.1464 27.9287 18.1464C27.8201 18.1464 27.4946 18.1344 27.3984 18.1167Z" fill="#111928"/>
</g>
<defs>
<clipPath id="clip0_12417_14731">
<rect width="38" height="24" fill="white"/>
</clipPath>
</defs>
</svg>
