<svg width="24" height="24" viewBox="0 0 24 24" fill="none" xmlns="http://www.w3.org/2000/svg">
<g clip-path="url(#clip0_102_24847)">
<path d="M23 11H3V3C3 1.9 3.9 1 5 1C6.1 1 7 1.9 7 3V4.1C6.6 4.2 6.2 4.6 6.1 5H8.9C8.8 4.6 8.4 4.2 8 4.1V3C8 1.3 6.7 0 5 0C3.3 0 2 1.3 2 3V11H1C0.4 11 0 11.4 0 12V16C0 18.2 1.2 20.2 3 21.2V22C3 23.1 3.9 24 5 24C6.1 24 7 23.1 7 22H17C17 23.1 17.9 24 19 24C20.1 24 21 23.1 21 22V21.2C22.8 20.2 24 18.2 24 16V12C24 11.4 23.6 11 23 11ZM5 23C4.4 23 4 22.6 4 22V21.7C4.6 21.9 5.3 22 6 22C6 22.6 5.6 23 5 23ZM20 22C20 22.6 19.6 23 19 23C18.4 23 18 22.6 18 22C18.7 22 19.4 21.9 20 21.7V22ZM22 16C22 18.2 20.2 20 18 20H6C3.8 20 2 18.2 2 16V15H22V16ZM22 14H2V13H22V14Z" fill="#1C64F2"/>
</g>
<defs>
<clipPath id="clip0_102_24847">
<rect width="24" height="24" fill="white"/>
</clipPath>
</defs>
</svg>
