<svg width="24" height="19" viewBox="0 0 24 19" fill="none" xmlns="http://www.w3.org/2000/svg">
<path d="M6.6 9.5C8.25413 9.5 9.6 8.16814 9.6 6.53125C9.6 4.89436 8.25413 3.5625 6.6 3.5625C4.94588 3.5625 3.6 4.89436 3.6 6.53125C3.6 8.16814 4.94588 9.5 6.6 9.5ZM19.8 4.75H11.4C11.0685 4.75 10.8 5.0157 10.8 5.34375V10.6875H2.4V2.96875C2.4 2.6407 2.1315 2.375 1.8 2.375H0.6C0.2685 2.375 0 2.6407 0 2.96875V16.0312C0 16.3593 0.2685 16.625 0.6 16.625H1.8C2.1315 16.625 2.4 16.3593 2.4 16.0312V14.25H21.6V16.0312C21.6 16.3593 21.8685 16.625 22.2 16.625H23.4C23.7315 16.625 24 16.3593 24 16.0312V8.90625C24 6.61066 22.1198 4.75 19.8 4.75Z" fill="#1C64F2"/>
</svg>
