<svg width="39" height="27" viewBox="0 0 39 27" fill="none" xmlns="http://www.w3.org/2000/svg">
<path d="M24.25 0.5H34.5C36.7091 0.5 38.5 2.29086 38.5 4.5V9.88889V17.1111V22.5C38.5 24.7091 36.7091 26.5 34.5 26.5H24.25H14.75H4.5C2.29086 26.5 0.5 24.7091 0.5 22.5V17.1111V9.88889V4.5C0.5 2.29086 2.29086 0.5 4.5 0.5H14.75H24.25Z" fill="#F6C859"/>
<path d="M14.75 0.5H24.25M14.75 0.5H4.5C2.29086 0.5 0.5 2.29086 0.5 4.5V9.88889M14.75 0.5V5.19444M24.25 0.5H34.5C36.7091 0.5 38.5 2.29086 38.5 4.5V9.88889M24.25 0.5V5.19444H14.75M14.75 26.5H4.5C2.29086 26.5 0.5 24.7091 0.5 22.5V17.1111M14.75 26.5H24.25M14.75 26.5V21.8056M24.25 26.5H34.5C36.7091 26.5 38.5 24.7091 38.5 22.5V17.1111M24.25 26.5V21.8056M0.5 17.1111V9.88889M0.5 17.1111H14.75M38.5 17.1111V9.88889M38.5 17.1111H24.25M0.5 9.88889H14.75M38.5 9.88889H24.25V17.1111M14.75 9.88889V17.1111M14.75 9.88889V5.19444M14.75 17.1111V21.8056M24.25 17.1111V21.8056M14.75 21.8056H24.25" stroke="#7D662D"/>
</svg>
