<svg width="20" height="20" viewBox="0 0 20 20" fill="none" xmlns="http://www.w3.org/2000/svg">
<path fill-rule="evenodd" clip-rule="evenodd" d="M0 9.75C0 4.36522 4.36522 0 9.75 0C15.1348 0 19.5 4.36522 19.5 9.75C19.5 15.1348 15.1348 19.5 9.75 19.5C4.36522 19.5 0 15.1348 0 9.75ZM13.3603 7.93593C13.6011 7.59887 13.523 7.13046 13.1859 6.8897C12.8489 6.64894 12.3805 6.72701 12.1397 7.06407L8.9043 11.5936L7.28033 9.96967C6.98744 9.67678 6.51256 9.67678 6.21967 9.96967C5.92678 10.2626 5.92678 10.7374 6.21967 11.0303L8.46967 13.2803C8.62556 13.4362 8.84215 13.5156 9.06186 13.4974C9.28157 13.4793 9.48216 13.3653 9.6103 13.1859L13.3603 7.93593Z" fill="#31C48D"/>
</svg>
