<svg width="24" height="24" viewBox="0 0 24 24" fill="none" xmlns="http://www.w3.org/2000/svg">
<g clip-path="url(#clip0_572_15862)">
<path d="M23 5C23.2652 5 23.5196 4.89464 23.7071 4.70711C23.8946 4.51957 24 4.26522 24 4V1C24 0.734784 23.8946 0.48043 23.7071 0.292893C23.5196 0.105357 23.2652 0 23 0L20 0C19.7348 0 19.4804 0.105357 19.2929 0.292893C19.1054 0.48043 19 0.734784 19 1V2H5V1C5 0.734784 4.89464 0.48043 4.70711 0.292893C4.51957 0.105357 4.26522 0 4 0L1 0C0.734784 0 0.48043 0.105357 0.292893 0.292893C0.105357 0.48043 0 0.734784 0 1L0 4C0 4.26522 0.105357 4.51957 0.292893 4.70711C0.48043 4.89464 0.734784 5 1 5H2V19H1C0.734784 19 0.48043 19.1054 0.292893 19.2929C0.105357 19.4804 0 19.7348 0 20L0 23C0 23.2652 0.105357 23.5196 0.292893 23.7071C0.48043 23.8946 0.734784 24 1 24H4C4.26522 24 4.51957 23.8946 4.70711 23.7071C4.89464 23.5196 5 23.2652 5 23V22H19V23C19 23.2652 19.1054 23.5196 19.2929 23.7071C19.4804 23.8946 19.7348 24 20 24H23C23.2652 24 23.5196 23.8946 23.7071 23.7071C23.8946 23.5196 24 23.2652 24 23V20C24 19.7348 23.8946 19.4804 23.7071 19.2929C23.5196 19.1054 23.2652 19 23 19H22V5H23ZM1 4V1H4V4H1ZM4 23H1V20H4V23ZM19 20V21H5V20C5 19.7348 4.89464 19.4804 4.70711 19.2929C4.51957 19.1054 4.26522 19 4 19H3V5H4C4.26522 5 4.51957 4.89464 4.70711 4.70711C4.89464 4.51957 5 4.26522 5 4V3H19V4C19 4.26522 19.1054 4.51957 19.2929 4.70711C19.4804 4.89464 19.7348 5 20 5H21V19H20C19.7348 19 19.4804 19.1054 19.2929 19.2929C19.1054 19.4804 19 19.7348 19 20ZM23 20V23H20V20H23ZM20 4V1H23V4H20Z" fill="#1C64F2"/>
</g>
<defs>
<clipPath id="clip0_572_15862">
<rect width="24" height="24" fill="white"/>
</clipPath>
</defs>
</svg>
