<svg width="45" height="24" viewBox="0 0 45 24" fill="none" xmlns="http://www.w3.org/2000/svg">
<path d="M33.0319 0H11.9681C5.38564 0 0 5.4 0 12C0 18.6 5.38564 24 11.9681 24H33.0319C39.6144 24 45 18.6 45 12C45 5.4 39.6144 0 33.0319 0Z" fill="white"/>
<path d="M21.5163 12.8519V16.4819H20.3643V7.51794H23.4183C24.1923 7.51794 24.8523 7.77595 25.3923 8.29195C25.9443 8.80795 26.2203 9.43795 26.2203 10.1819C26.2203 10.9439 25.9443 11.5739 25.3923 12.0839C24.8583 12.5939 24.1983 12.8459 23.4183 12.8459H21.5163V12.8519ZM21.5163 8.62195V11.7479H23.4423C23.8983 11.7479 24.2823 11.5919 24.5823 11.2859C24.8883 10.9799 25.0443 10.6079 25.0443 10.1879C25.0443 9.77394 24.8883 9.40795 24.5823 9.10195C24.2823 8.78395 23.9043 8.62794 23.4423 8.62794H21.5163V8.62195Z" fill="#3C4043"/>
<path d="M29.2322 10.146C30.0842 10.146 30.7562 10.374 31.2482 10.83C31.7402 11.286 31.9862 11.91 31.9862 12.702V16.482H30.8882V15.63H30.8402C30.3662 16.332 29.7302 16.68 28.9382 16.68C28.2602 16.68 27.6962 16.482 27.2402 16.08C26.7842 15.678 26.5562 15.18 26.5562 14.58C26.5562 13.944 26.7962 13.44 27.2762 13.068C27.7562 12.69 28.3982 12.504 29.1962 12.504C29.8802 12.504 30.4442 12.63 30.8822 12.882V12.618C30.8822 12.216 30.7262 11.88 30.4082 11.598C30.0902 11.316 29.7182 11.178 29.2922 11.178C28.6502 11.178 28.1402 11.448 27.7682 11.994L26.7542 11.358C27.3122 10.548 28.1402 10.146 29.2322 10.146ZM27.7442 14.598C27.7442 14.898 27.8702 15.15 28.1282 15.348C28.3802 15.546 28.6802 15.648 29.0222 15.648C29.5082 15.648 29.9402 15.468 30.3182 15.108C30.6962 14.748 30.8882 14.328 30.8882 13.842C30.5282 13.56 30.0302 13.416 29.3882 13.416C28.9202 13.416 28.5302 13.53 28.2182 13.752C27.9002 13.986 27.7442 14.268 27.7442 14.598Z" fill="#3C4043"/>
<path d="M38.2502 10.344L34.4102 19.176H33.2222L34.6502 16.086L32.1182 10.344H33.3722L35.1962 14.748H35.2202L36.9962 10.344H38.2502Z" fill="#3C4043"/>
<path d="M16.9341 12.12C16.9341 11.7444 16.9005 11.385 16.8381 11.0394H12.0093V13.0194L14.7903 13.02C14.6775 13.6788 14.3145 14.2404 13.7583 14.6148V15.8994H15.4137C16.3803 15.0048 16.9341 13.6824 16.9341 12.12Z" fill="#4285F4"/>
<path d="M13.7585 14.6148C13.2977 14.9256 12.7043 15.1074 12.0101 15.1074C10.6691 15.1074 9.5315 14.2038 9.1241 12.9858H7.4165V14.3106C8.2625 15.9894 10.0013 17.1414 12.0101 17.1414C13.3985 17.1414 14.5649 16.6848 15.4139 15.8988L13.7585 14.6148Z" fill="#34A853"/>
<path d="M8.96352 12.003C8.96352 11.661 9.02052 11.3304 9.12432 11.0196V9.69482H7.41672C7.06692 10.389 6.87012 11.1726 6.87012 12.003C6.87012 12.8334 7.06752 13.617 7.41672 14.3112L9.12432 12.9864C9.02052 12.6756 8.96352 12.345 8.96352 12.003Z" fill="#FABB05"/>
<path d="M12.0101 8.89801C12.7679 8.89801 13.4465 9.15901 13.9823 9.66901L15.4493 8.20321C14.5583 7.37341 13.3967 6.86401 12.0101 6.86401C10.0019 6.86401 8.2625 8.01601 7.4165 9.69481L9.1241 11.0196C9.5315 9.80161 10.6691 8.89801 12.0101 8.89801Z" fill="#E94235"/>
</svg>
