<svg width="20" height="24" viewBox="0 0 20 24" fill="none" xmlns="http://www.w3.org/2000/svg">
<g clip-path="url(#clip0_71_10184)">
<path d="M16.9664 1.86808C15.8779 0.605932 13.91 0.0648193 11.3926 0.0648193H4.08637C3.83728 0.0647803 3.59636 0.155154 3.40693 0.319684C3.2175 0.484215 3.092 0.712103 3.05301 0.962356L0.0108242 20.5889C-0.0496445 20.9759 0.244965 21.3264 0.63059 21.3264H5.14121L6.27403 14.0174L6.23887 14.2463C6.31957 13.7296 6.75395 13.3486 7.26832 13.3486H9.41176C13.6225 13.3486 16.9197 11.6088 17.8828 6.57605C17.9114 6.4272 17.9361 6.28233 17.9575 6.14079C17.836 6.07531 17.836 6.07531 17.9575 6.14079C18.2443 4.28063 17.9556 3.01444 16.9664 1.86808Z" fill="#27346A"/>
<path d="M7.99997 5.4707C8.12325 5.41088 8.25814 5.37992 8.39473 5.3801H14.1227C14.801 5.3801 15.4336 5.425 16.0118 5.51965C16.1735 5.54591 16.3345 5.57724 16.4943 5.61359C16.7209 5.66446 16.9449 5.72671 17.1654 5.8001C17.4497 5.89666 17.7143 6.00911 17.9576 6.14079C18.2443 4.27992 17.9556 3.01444 16.9664 1.86808C15.8772 0.605932 13.91 0.0648193 11.3926 0.0648193H4.08575C3.57129 0.0648193 3.13364 0.445799 3.05301 0.962356L0.0108246 20.5882C-0.0496441 20.9758 0.244965 21.3258 0.629965 21.3258H5.14122L7.49145 6.16527C7.51458 6.01626 7.57294 5.8752 7.66152 5.75421C7.7501 5.63322 7.86624 5.53593 7.99997 5.4707Z" fill="#27346A"/>
<path d="M17.8827 6.57613C16.9196 11.6082 13.6226 13.3487 9.41172 13.3487H7.26765C6.75328 13.3487 6.31883 13.7297 6.2389 14.2464L4.82961 23.3342C4.77695 23.6729 5.03445 23.9798 5.37133 23.9798H9.17367C9.39148 23.9797 9.60212 23.9006 9.76772 23.7567C9.93331 23.6128 10.043 23.4135 10.077 23.1946L10.1141 22.9975L10.8307 18.3775L10.8769 18.1221C10.9109 17.9033 11.0206 17.704 11.1862 17.5601C11.3517 17.4161 11.5624 17.337 11.7802 17.3369H12.3492C16.0326 17.3369 18.9167 15.8148 19.7595 11.4124C20.1113 9.57271 19.9293 8.03671 18.9987 6.95782C18.7164 6.63104 18.3659 6.36116 17.9575 6.14087C17.9354 6.28312 17.9114 6.42728 17.8827 6.57613Z" fill="#2790C3"/>
<path d="M16.9493 5.73198C16.7992 5.68738 16.6476 5.64788 16.4948 5.61357C16.3349 5.5778 16.1739 5.54669 16.0122 5.52027C15.4335 5.42499 14.8013 5.38001 14.1224 5.38001H8.39512C8.25844 5.37977 8.12349 5.41099 8.00035 5.47132C7.86646 5.53631 7.75016 5.63354 7.66154 5.75456C7.57291 5.87559 7.51464 6.01678 7.49176 6.16589L6.27441 14.0174L6.23926 14.2463C6.31934 13.7296 6.75371 13.3486 7.26816 13.3486H9.41223C13.623 13.3486 16.92 11.6088 17.8832 6.57603C17.9118 6.42719 17.9359 6.28295 17.958 6.14077C17.7142 6.00991 17.4501 5.89656 17.1658 5.80072C17.0941 5.77653 17.0219 5.75361 16.9494 5.73198" fill="#1F264F"/>
</g>
<defs>
<clipPath id="clip0_71_10184">
<rect width="20" height="24" fill="white"/>
</clipPath>
</defs>
</svg>
