<svg width="40" height="40" viewBox="0 0 40 40" fill="none" xmlns="http://www.w3.org/2000/svg">
<path d="M12.9683 8.33337C6.72681 8.33337 1.6665 13.3332 1.6665 19.5004C1.66668 25.6674 6.72692 30.6664 12.9683 30.6664C15.7662 30.6663 18.3248 29.6597 20.2983 27.9955C17.8696 25.9474 16.3277 22.9027 16.3276 19.5004C16.3276 16.0979 17.8694 13.0524 20.2983 11.0043C18.3248 9.34012 15.7661 8.33347 12.9683 8.33337Z" fill="white"/>
<path opacity="0.7" d="M20.2974 11.0043C22.7266 13.0524 24.269 16.0976 24.269 19.5004C24.2689 22.9027 22.7262 25.9464 20.2974 27.9945C17.8692 25.9464 16.3277 22.9022 16.3276 19.5004C16.3276 16.0981 17.8687 13.0524 20.2974 11.0043Z" fill="white"/>
<path opacity="0.3" d="M27.6284 8.33337C33.8699 8.33337 38.9302 13.3332 38.9302 19.5004C38.93 25.6674 33.8698 30.6664 27.6284 30.6664C24.8305 30.6663 22.2719 29.6597 20.2983 27.9955C22.7271 25.9474 24.2689 22.9027 24.269 19.5004C24.269 16.0979 22.7273 13.0524 20.2983 11.0043C22.2719 9.34012 24.8306 8.33347 27.6284 8.33337Z" fill="white"/>
</svg>
