<svg width="24" height="15" viewBox="0 0 24 15" fill="none" xmlns="http://www.w3.org/2000/svg">
<path d="M16.7217 0C20.7414 0.000207377 24 3.35799 24 7.5C24 11.642 20.7414 14.9998 16.7217 15C14.9193 15 13.2712 14.3231 12 13.2051C10.7288 14.3231 9.08068 15 7.27832 15C3.25858 14.9998 0 11.642 0 7.5C0 3.35799 3.25858 0.000204991 7.27832 0C9.08045 0 10.7288 0.676135 12 1.79395C13.2712 0.676137 14.9196 0 16.7217 0Z" fill="#ED0006"/>
<path d="M16.7217 0C20.7414 0.000207643 24 3.35799 24 7.5C24 11.642 20.7414 14.9998 16.7217 15C14.9193 15 13.2712 14.3231 12 13.2051C13.5641 11.8295 14.5576 9.78498 14.5576 7.5C14.5576 5.21479 13.5644 3.16958 12 1.79395C13.2712 0.676137 14.9196 0 16.7217 0Z" fill="#F9A000"/>
<path d="M11.9995 1.79321C13.5643 3.16885 14.5571 5.21467 14.5571 7.50024C14.5571 9.78537 13.5638 11.8297 11.9995 13.2053C10.4357 11.8298 9.44295 9.78498 9.44287 7.50024C9.44287 5.21506 10.4352 3.16884 11.9995 1.79321Z" fill="#FF5E00"/>
</svg>
