<svg width="30" height="10" viewBox="0 0 30 10" fill="none" xmlns="http://www.w3.org/2000/svg">
<path fill-rule="evenodd" clip-rule="evenodd" d="M7.50031 9.92211H4.904L2.95709 2.16439C2.86468 1.80754 2.66847 1.49206 2.37985 1.34337C1.65956 0.969703 0.865859 0.672324 0 0.522341V0.223669H4.18245C4.75969 0.223669 5.19262 0.672324 5.26478 1.19338L6.27495 6.78928L8.86999 0.223669H11.3941L7.50031 9.92211ZM12.8372 9.92211H10.3852L12.4043 0.223669H14.8563L12.8372 9.92211ZM18.0286 2.91044C18.1008 2.38808 18.5337 2.08941 19.0388 2.08941C19.8325 2.01442 20.6971 2.1644 21.4186 2.53677L21.8516 0.448655C21.13 0.149982 20.3363 0 19.616 0C17.2362 0 15.5045 1.34338 15.5045 3.20782C15.5045 4.62618 16.7311 5.37092 17.5969 5.81958C18.5337 6.26694 18.8945 6.56561 18.8223 7.01298C18.8223 7.68402 18.1008 7.98269 17.3805 7.98269C16.5146 7.98269 15.6488 7.75901 14.8563 7.38535L14.4234 9.47476C15.2893 9.84713 16.226 9.99711 17.0919 9.99711C19.7603 10.0708 21.4186 8.72872 21.4186 6.7143C21.4186 4.17753 18.0286 4.02884 18.0286 2.91044ZM30 9.92211L28.0531 0.223669H25.9619C25.5289 0.223669 25.096 0.522341 24.9517 0.969703L21.3465 9.92211H23.8706L24.3744 8.50503H27.4758L27.7645 9.92211H30ZM26.3226 2.83543L27.0429 6.4906H25.0238L26.3226 2.83543Z" fill="#172B85"/>
</svg>
